
<svg version="1.1" id="Layer_1" xmlns="http://www.w3.org/2000/svg" x="0" y="0" viewBox="0 0 360.6 71.9" style="enable-background:new 0 0 360.6 71.9" xml:space="preserve"><style>.st0{fill:#3673fc}</style><path class="st0" d="M228.3 72c.4-.3.9-.5 1.3-.9.7-.8 1.6-1.2 2.4-1.8l4.6-3.3c.4-.3.7-.5 1.2-.5-.1.2-.1.4-.3.5l-4.8 3.4-.6.4-2.3 1.8M242.4 70.8l.5-.6 7.7-5.7 1.5-1.3 12.2-9 4.7-3.3c.1-.1.2-.1.4 0-8.7 7-17.8 13.5-26.7 20.1l-.3-.2zM236.3 70.6l7.9-6 2-1.3.5-.1c-.4 1.1-1.3 1.5-2.1 2.1l-1.9 1.4-.9.6c-1.1.3-1.8 1.1-2.6 1.8l-3.1 2.2M353.2 71.9c.7-.3 1.2-1 1.8-1.4l4-3c.2.7-.1 1-.5 1.2-1.4.9-2.4 2.2-4 2.8l-.4.3M57.1 67.4l10.4-7.9.5.7-5.1 3.4-2.3 1.8-2.9 2c-.1.1-.3 0-.4 0-.1.1-.2.1-.2 0zM158.7 62.4c2.1-1.6 4.3-3.1 6.3-4.9 1.1-.9 2.2-1.7 3.5-2.4.1.3.2.5.1.6l-.6.5-7.5 5.5c-.5.4-1 1-1.8.7zM216.9 63.4c-.4.9-7.2 6-8.5 6.5.1-.6.3-.8 2.5-2.4 1-.7 2.1-1.3 2.9-2.1.9-.9 2-1.4 3.1-2zM224.5 70.7l3.6-2.8c.3-.2.7-.5 1 .1l-1.5 1.1M256 68.9c.4-.3.8-.7 1.4-.1M233.3 55.9l-.2.4c-1.2.9-2.3 1.8-3.5 2.5-.7.5-1.1 1.4-2.2 1.3l-.4.5c-.6.6-1.1 1.2-2.3 1.1.3-.3.4-.5.7-.6l5-3.5 2.3-1.7.5-.2.1.2zM223.8 66.8l1.9-1.4.7-.5 2.7-1.9 2.9-2.1 1.8-1.3c-.3.7-2 2.3-3 3l-3.3 2.3c-1.2.7-2.1 1.8-3.4 2.3l-.3-.4zM205.5 71.4c.3-.2.6-.4 1 .1M167.7 60.4a54 54 0 0 1 8.9-6.6l-.3.4-5.1 3.6-1.2 1.1c-.4.4-.8.8-1.3 1-.3.4-.6.4-1 .5zM149.7 64.8l-.1.6-6.1 4.4-.2-.1c1.7-2.1 4.1-3.4 6.1-5l.3.1zM90.8 68.8c.1.6-.2.9-.5 1.1l-2.9 1.9M201.9 69.7c.1.3.2.6.1.7-.1.2-.3.5-.6.6M329.3 51c-.3-.5-.2-.8.1-1l3.5-2.6.8-.7.8.3-5.2 4zM246 72.1l.9-.5M340.6 24.3l5.9-4.2c.4.4.1.6-.1.8l-3.5 2.5-1.4 1-.8.3-.1-.4zM56.1 68.1c0 .4.1.7 0 .8M148.8 61.2l-.2.6c-1.7.8-2.8 2.4-4.3 3.4-.4.3-.8.5-1.2-.2l5.4-3.9.3.1zM298.2 60.5c.1-.8.6-1.3 1.1-1.7l3-2 .7-.1c-1.4 1.6-2.8 3-4.8 3.8zM130.2 70.7c.3-1 3.2-3.2 5-3.8-1.3 1.9-3.3 2.7-5 3.8zM292.5 64.6V64l4.8-3.3h.2l-.2.5a140 140 0 0 1-4.6 3.5l-.2-.1zM130.7 56.7l5.1-3.8c.3.3.3.6 0 .9l-1.5 1-2.4 1.8c-.4.3-.5.4-1.2.1zM250.8 56.1c-.6.8-1.3 1.4-2.2 1.8l-1.5 1.1-1.3.9-.2-.2.2-.4 4.3-3.4c.3-.3.5-.2.7.2zM331.8 39.3l4.8-3.4c0 .9-.6 1-1 1.4l-1 .7c-.6.7-1.5 1.1-2.3 1.5-.1.1-.3 0-.4-.1l-.1-.1zM275.4 42.2a6 6 0 0 1 2.5-2.2c.5-.2.9-.7 1.3-1l1.2-.9-.1.8-4.7 3.6-.2-.3zM336 32.7l-3.6 2.8h-1.1c1.1-1.1 3.8-2.9 4.5-3l.2.2zM360.6 14.8c-.5.3-1.1.5-1.5.9l-2.7 2.1c-.3.2-.6.4-1 0 1.7-1.1 3-2.8 5.1-3.2l.1.2zM112 66.5c.7-1 1.6-1.9 2.7-2.6h.5l.4.3a7.2 7.2 0 0 1-3.6 2.3zM152.7 53.9c.2-.3.2-.5.4-.6 1.2-.3 1.7-1.5 2.6-2.1l1.1-.8c0 .9 0 .9-1.6 2.1-.7.7-1.4 1.2-2.5 1.4zM235.9 45.1l-4.1 3 .1-.4 3.2-2.6c.3-.1.6-.3.8 0zM151.2 68.2c-1.5 1.4-2.9 2.9-4.9 3.6 1.4-1.6 3-2.7 4.9-3.6zM297 48.4c0-.4-.1-.7 0-.8 1.1-.9 2-1.8 3.5-2.2-.4.8-2.3 2.4-3.5 3zM259.7 62.6c-1.5 1.2-2.6 2.5-4.5 3.2.8-1.3 3-2.9 4.5-3.2zM95.9 70.1l-.5.5-2.1 1.5M241.5 71.4l-.4.6M224.6 62c-.1.3 0 .7-.2.8l-3 2-.9.3c1.2-1.5 2.6-2.3 3.8-3.2l.3.1zM116.4 67.6v.3l-3.7 2.9c-.4-.2-.5-.4-.2-.7l1.3-1 1.4-1.1 1-.7.2.3zM346 12c.6-1.3 1.8-1.8 3-2.8-.1.6 0 .9-.2 1.1-.7.8-1.6 1.5-2.8 1.7zM357.2 25.4l-.2.5-4.4 3.5v-.7l4.6-3.3zM358.3 55.1l.1.4-.3.4a46 46 0 0 1-3.7 2.3c.4-.7 3-2.8 3.9-3.1zM15.5 54.7l.6-.8 2.1-1.7c.3-.3.7-.5 1.3 0L15.8 55l-.3-.3zM280.6 55.8c.2-.8 1.2-1.6 3.3-2.6-.2 1-2.1 2.4-3.3 2.6zM56.4 50.8c.6-1 3.9-3.4 5-3.5a18.8 18.8 0 0 1-5 3.5zM332.4 22.2l-4.1 3c-.1.1-.3 0-.8-.1l4.6-3.2.3.3zM235 59c.7-1 4.1-3.6 4.9-3.9-.3.7-2.8 2.7-4.9 3.9zM244.3 52c-.8 1.3-2.2 1.9-3.5 3 0-.4-.1-.7 0-.8l3.3-2.5.2.3zM259.1 54.3a12.8 12.8 0 0 1-3.9 2.9c.8-1.3 2.9-2.8 3.9-2.9zM327.5 29.9a11 11 0 0 1 4.5-3.1l-4.2 3.4-.3-.3zM348.6 23.5c-1 1-2.1 1.5-3.2 2.3l-.2-.2.5-.7 2-1.5c.3-.3.6-.2.9.1zM350.3 26.1c1.4-1.6 3.5-2.4 5.1-3.9v.5l-4.9 3.7c0-.2-.1-.2-.2-.3zM27.2 59.4l.1-.5 2.9-2.3h.6c-.9 1.3-2.5 1.8-3.6 2.8zM45.5 59c.3-1.1 1.4-1.9 3.1-2.5-.9 1.2-1.7 2-3.1 2.5zM230.5 66.8l.1-.6c1.4-1.1 2.7-2.3 4.4-3.1.1.5-.3.6-.5.8l-4 2.9zM252.3 59.2c-.6.8-2.9 2.6-3.8 2.8.4-.8 2.5-2.4 3.8-2.8zM306.5 28c.3-.5 3.8-3.2 4.5-3.4-.2.3-.2.7-.4.8-1.3.6-2.4 1.6-3.5 2.4l-.6.2zM147.2 57.9c.6-.9 1.5-1.5 2.4-2h.7c-.6 1-1.9 1.9-3.1 2zM299.2 41.8 303 39l.3.1a9 9 0 0 1-4.1 2.7zM354.2 14.8v.1c-.9 1-2 1.7-3.2 2.3l-.2-.2 1.5-1.3 1.1-.8c.2-.2.5-.1.8-.1zM337.2 18.4l.2-.4 4.1-2.9.6.1-4.7 3.3-.2-.1zM333.6 69c-.3.8-1.9 2-3.2 2.6.2-.7 2.1-2.2 3.2-2.6zM355.2 53.2l3-2.3c.1-.1.3.1.4.1-.6.8-2.5 2.2-3.2 2.5l-.2-.3zM306.5 27.9l-.1.3c-1.1.8-2.2 1.7-3.4 2.4.9-1.1 2-2.2 3.5-2.7 0 .1 0 0 0 0zM133.4 63.8c.7-1 1.6-1.7 3.1-2.3a5.2 5.2 0 0 1-3.1 2.3zM216.3 59.2c-.1.4 0 .8-.2.9l-2.4 1.6-.2-.2c0-.2 0-.5.2-.5l2.6-1.8zM201.2 44.8c-1 .7-1.7 1.8-3 2.1-.1-.5.2-.8.5-1l2.4-1.4.1.3zM294.1 36.5l3.1-2c0 1.1-.8 1.3-1.3 1.7-.4.4-.9.8-1.8.3zM133 59.8c.2-.3.3-.6.6-.8 1-.9 2.2-1.6 3-1.7l-3.3 2.7-.3-.2zM197.1 60.2l2.8-2.1c0 1-1.1 1.9-2.6 2.4l-.2-.3zM263.9 58.8c.4.3.4.6.1.9l-2.5 1.7-.2-.3 2.6-2.3zM202.8 47.7a5.5 5.5 0 0 1-2.9 2.1c.8-1.3 1.8-2 2.9-2.1zM342.9 62.6c.4-1.6 1.7-1.7 2.8-2.4-.3.8-1 1.5-2.8 2.4zM28.2 71.4c.7-.9 1.5-1.7 2.5-2.2.4.2.4.5.1.7l-2.3 1.8-.3-.3zM308.3 35.9c0-1.2 1.4-2.3 2.7-2.3l-2.7 2.3zM203.2 65.1l-3.6 2.5c1.1-1.4 2.6-2.6 3.6-2.5zM214.2 69.5c-.7 1.5-1.3 1.9-2.5 1.7.7-.8 1.5-1.3 2.5-1.7zM242.5 62.5l-3.1 2c.2-.7 1-1.5 2.2-2.2.3-.1.6-.3.9.2zM264.1 71.9l3.1-2.1.2.2-1.7 1.5-.5.5M253.6 66.6l-.1.7c-.3.5-1.8 1.4-2.8 1.6 1-.7 1.7-1.7 2.9-2.3zM206.6 66.6c-.4 1.2-1.5 1.6-2.6 2.3 0-.9.7-1.1 1.1-1.5.4-.4 1-.6 1.5-.8zM94.7 66.1c.7-.8 1.5-1.5 2.5-2 0 .9-.7 1-1.1 1.3-.3.3-.7.7-1.4.7zM42.8 60.8c-.7 1.3-2 1.6-3.1 2.6.3-1 2-2.3 3.1-2.6zM178.9 52l3.5-2.8.1.7-3.4 2.3a.2.2 0 0 1-.2-.2z"/><path class="st0" d="M354.2 14.8c.1-.3.1-.6.3-.7l2.5-1.6.1.2-2.6 2.2-.3-.1zM34.8 70.8c.8-.8 1.5-1.6 2.5-2-.1 1.2-1.3 2.1-2.5 2zM219.9 65.8l-2.6 2.2c-.1-.6 0-1.1.4-1.3l2-1.2.2.3zM360.7 1.2c-.6 1.1-1.5 1.5-2.5 1.9.4-.9 1.4-1.7 2.5-1.9zM318.7 41.2c.1-1.1 1-1.9 2.5-1.9l-2.5 1.9zM228.9 54.1l2.4-1.5c-.5 1.3-1.3 1.8-2.2 1.7l-.2-.2zM69.3 58.8l.1-.5 2.4-1.7c-.5 1.2-.6 1.3-2.5 2.2zM160.2 53.1l-2.5 1.9-.5-.7 2.8-1.5.2.3zM128.9 62.8c.6-1.2 1.9-1.6 2.9-2.3-.6 1.3-1.7 1.9-2.9 2.3zM268.9 46.9c.6-.9 1.4-1.4 2.5-1.9-.5 1-1.5 1.7-2.5 1.9zM334.8 55.1c-.8 1.3-1.9 1.7-3 2.4 0-1 .7-1.1 1.2-1.5l1.8-.9zM122.2 63.5l-2.9 2.3c-.1-1.1.8-1.2 1.1-1.6.4-.4 1-.7 1.5-1l.3.3zM160.8 52.7c.3-1 1.5-1.9 2.8-2.1l-2.8 2.1zM110.5 67.7c-.1.2 0 .5-.2.6-.7.3-1.2 1.1-2.4.8l2.3-1.5c.1-.1.2 0 .3.1zM306.1 67.1c.2 1.1-.2 1.4-1.5 1.5.2-.8.2-.9 1.5-1.5zM340.9 42.3v-.8c.7-.3 1.2-1 2.2-1.1-.4 1-1.3 1.3-2.2 1.9zM36.9 65.2c-.8.9-1.8 1.6-3 2.3.1-1 .8-1.2 1.3-1.5.6-.4 1-.9 1.7-.8zM344 18.2l-1 .8-1.2.9c-.3.2-.6.5-.9.1.4-.7 2.3-1.9 3.1-1.8zM265.8 66.2c.2 1.3-.9 1.6-1.7 2.2-.5-.6 0-.9.3-1.2l1.4-1zM142.9 61.6l-3.3 2.2c.4-.8 2-1.9 3.3-2.2zM320.2 13.6l-.1-.4c.7-.6 1.4-1.3 2.6-1.6-.5 1.2-1.7 1.3-2.3 2.1l-.2-.1zM333.5 29.7c-.3 1.3-1.3 1.5-2.1 2.1-.2-.7.3-1.3 2.1-2.1zM189.2 70.6c-.2.7-.7.9-1 1.1M138 69.2c.4-.7 1.3-1.4 2.6-2.1-.2.7-1.9 2-2.6 2.1zM357.2 25.5a8 8 0 0 1 2.9-2.2l.2.2-.3.4-2 1.5-.8.1zM316.4 29.3c-.3 1.2-1.4 1.3-2.3 1.8.7-.8 1.2-1.7 2.3-1.8zM253.1 50.1l-2.8 1.9c.1-.6 0-.6 1-1.3.6-.2.9-1 1.8-.6zM51.6 54.1l2.6-2c-.5 1.3-1.5 2.1-2.6 2zM347.6 67.5c-.2.7-1 1-1.5 1.5-.2.3-.6.5-1.2.2l2.5-1.9.2.2zM209 60.9l-2.5 1.8-.2-.2.3-.5 2-1.4.4.3zM149.9 52l-2.5 1.9c.2-1.1 1.2-1.8 2.5-1.9zM13.5 47.6c-.2.8-1.1 1-1.7 1.5l-.6.1-.1-.2 2.1-1.7.3.3zM227.8 55.6a29 29 0 0 1-1.9 1.7c-.4-.2-.5-.5-.2-.7l1.9-1.3.2.3zM343.3 48.6l2.1-1.8c.1 1.1 0 1.2-2.1 1.8zM352.5 32.9l2.2-1.4c-.2 1.2-1.1 1.8-2.2 1.4zM348.5 32.2c.1-.8.5-1.2 2.3-2a5 5 0 0 1-2.3 2zM193.3 42.1c-.1-1 .7-1.7 1.9-1.9-.3.9-1.2 1.1-1.9 1.9zM347.9 27.8c-.7 1.5-1.3 1.9-2.3 1.8.6-.8 1.3-1.2 2.3-1.8zM339.6 64.7c-.7.9-1.5 1.5-2.4 2l-.2-.2.2-.4 1.8-1.4h.6zM337.7 22.6c-2.7 2.1-1.9 2-3.2 1.8l3-2 .2.2zM207.2 66.3c.6-1 1.3-1.5 2.3-1.7-.5 1-1.5 1.1-2.3 1.7zM224.8 57.5c-.4 1.1-1.5 1.4-2.3 2.2.3-.9.8-1.4 2.3-2.2zM289.1 57.7c.1.5.3.8.2.9l-1.2.9c-.1.1-.3-.1-.5-.2-.1-.1 0-.3.1-.4l1.4-1.2zM349 57.8c.6-1.1 1-1.4 2.3-1.6-.9 1.1-1.6 1.6-2.3 1.6zM194.9 70.9c.5-.7 2.2-1.9 2.7-2l.1.1v.2l-2.5 1.8c-.1.1-.2 0-.3-.1zM333.5 12.1l2.2-1.5.2.2-.2.4-1.5 1.2c-.4.3-.6.2-.7-.3zM229.6 40.7c0 1-.6 1.5-1.9 1.4l1.9-1.4zM219.5 61.5c-.4.9-1.2 1.3-2 1.9.1-.9.7-1.5 2-1.9zM272.2 39.9l2.4-2c-.2 1.2-1.1 1.9-2.4 2zM41.7 70l1.8-1.4.7-.2c-.4.9-1.2 1.3-1.9 1.7-.1.1-.3 0-.6-.1zM242.4 49.3c0-.8.4-1.2 2.3-2-.6 1.1-1.4 1.5-2.3 2zM263.6 51c-1.2.6-1.9 1.9-3.2 2.3l-.2-.2 3.2-2.2.2.1zM359.2 32.4l3.1-2.1c-.3.5-2 2.2-2.4 2.3-.2.1-.3-.1-.7-.2zM240.9 58.8c.8-.6 1.3-1.5 2.4-1.9-1 1.6-1.3 1.9-2.4 1.9zM156.4 68.7c-.7.8-1.4 1.5-2.4 1.8.6-1 1.5-1.5 2.4-1.8zM338.4 34.8l2.5-2.1.2.4-2.4 1.9h-.1l-.2-.2zM346 42.7c-.4.7-1 1.1-1.7 1.5.1-1.2.6-1.5 1.7-1.5zM153 62.4c.5-.7 1.1-1.3 1.9-1.6.1-.1.3.1.8.2a27 27 0 0 0-2.5 1.7l-.2-.3zM130.4 66.6c-.5-.9-.5-.9 1.2-1.5.1.8-.6 1-1.2 1.5zM128.9 62.8l-.6.8c-.6.5-1.1.9-1.8 1.1.5-.9 1.2-1.7 2.4-1.9zM305.7 72.1c-.4-.5.3-.6.6-.9l.8-.5c.4.7-.1.8-.4 1M349.2 52.9l2.4-1.7c-.2.8-1.3 1.7-2.2 1.9a.2.2 0 0 1-.2-.2zM216.9 42.1l-2.6 1.6a7 7 0 0 1 2.1-2.1l.5.1v.4zM311.2 19.7l2.4-1.5c-.2.7-1.4 1.6-2.4 1.5zM289.3 23.1c.6-.8 1.3-1.4 2.3-1.5-.7.7-1.2 1.6-2.3 1.5zM69.1 67.2l2.2-1.5c-.2 1.1-1 1.6-2.2 1.5zM254.1 53.3l2.2-1.9c.2.4.4.7-.1 1l-1.9 1-.2-.1zM342.1 27.8c-.2 1.3-1.2 1.2-2 1.7.4-.8.7-1.2 2-1.7zM148.7 43.3c-.1 1.1-.6 1.6-2.4 2.1l2.4-2.1zM55.6 60.1c-.4.8-1.1 1.3-2 1.5.6-1 .8-1.2 2-1.5zM359 41.9c-.9 1-1 1.1-1.9.7.4-.5.9-.9 1.5-1l.4.3zM108.1 64.9c.5-1 1.3-1.2 2.1-1.5-.5.6-.9 1.5-2.1 1.5zM86.9 63.2c-.6 1.2-.9 1.4-1.7.8.6-.3.9-1 1.7-.8zM336.7 58.1c-.5.8-1.2 1.2-2 1.5.6-.7 1.1-1.4 2-1.5zM219.5 61.5l2.4-2.2v.7l-2.4 1.5zM167.4 64.9c.5-.8 1.3-1.3 2.2-1.7-.2.8-1 1.4-2.2 1.7zM154.9 65.4c.9-1 1.6-1.7 2.8-2.1-.4.7-1.1 1.3-2.8 2.1zM346.2 46.9c.4-1.1.9-1.5 2-1.3l-2 1.3zM57 71.5l.2.2M214.6 69.2c.6-.7 1.2-1 2-1.2-.8 1-1.5 1.4-2 1.2zM345.3 17.2c.3-.8.9-1.2 1.6-1.5-.4.7-.8 1.3-1.6 1.5zM167 69.4c-.2 1.1-1 1.2-1.8 1.4l1.8-1.4zM356.2 61.4v-.5l2.3-1.7c-.2.9-.3.9-2.3 2.2zM345.8 33.7l1.7-1.4c.3.8 0 1-1.6 1.6l-.1-.2zM328.8 47c-.4-.3-.6-.5-.3-.8.3-.3.7-.4 1.1-.5v.6l-.8.7zM330.3 45.2c.5-.7.9-1.2 1.7-1.4-.1 1-.3 1.1-1.7 1.4zM172.2 66.4l-1.6 1.1c-.5-.4-.3-.7 0-.9.4-.4.8-.8 1.6-.2zM103.2 68.7l-1.9 1.7c-.2.2-.5.2-.8.2.6-.8 1.7-1.6 2.7-1.9zM337 44.8c.5-.9 1.3-1.2 2.1-1.7.2.7-.4.9-.7 1.1-.4.2-.7.7-1.4.6zM325.2 18.3c.8-.5 1.5-1.2 2.3-1.6-.3.9-1.5 1.7-2.3 1.6zM141.4 49.5l-1 1c-.4-.1-.6-.3-.5-.6.3-.5.8-.6 1.5-.4zM314.6 39.8c.1-1 .6-1.4 1.6-1.4-.2.7-.9.9-1.6 1.4zM143.7 56.2c-.4.9-1.2 1.3-2 1.6a4 4 0 0 1 2-1.6zM355.9 35.2c.3-.8.8-1.2 1.7-1.3-.2.8-.7 1.2-1.7 1.3zM213 57.7c.8-1.2 1-1.3 1.7-1.1a3 3 0 0 1-1.7 1.1zM339.1 39c.8-1.2 1.3-1.5 2.1-1.2l-2.1 1.2zM264.8 45.3c.5-.8 1.2-.8 2.2-.8-.8.5-1.4 1-2.2.8zM128.5 67.7l-1.4 1.4v-.9c.3-.3.5-.9 1.4-.5zM348.6 23.5c.2-.8.7-1.3 1.6-1.4-.5.6-.9 1.2-1.6 1.4zM348.8 49.3c-.7 1.3-.9 1.3-1.6.6.4-.4.8-.8 1.6-.6zM337.5 14.4c-.4-.9.1-1.1.4-1.3.3-.2.6-.1.8.5l-1.2.8zM341.6 32.2c1-.1 1.2-1.1 2.2-1.1-.6 1.1-1 1.3-2.2 1.1zM324.9 45.1c.7-.6 1.2-1.5 2.1-1.7l-2.1 1.7zM91.6 60c-.3-.7.4-.9.7-1.2.3-.2.6-.4.8.2l-1.5 1zM20.7 68.3 18.6 70c.4-.8.9-1.2 2.1-1.7zM267.1 61.8l-1.5 1c-.2-.8.5-1.3 1.5-1zM26.1 56.1c.4-1 .9-1.4 2-1.5-.7.7-1.2 1-2 1.5zM182.7 67.1c.1-1 .8-1 .9-1.7l.8.8-1.7.9zM326.4 65.5l2.1-1.7c-.3 1-1.1 1.6-2.1 1.7zM355.4 65.9c0 1.1-.3 1.2-1.5 1.3.1-.7.7-.9 1.5-1.3zM294.8 53.9c.6-.7 1.1-1.2 2-1.4-.4.9-.9 1.3-2 1.4zM302.5 65.7l1.7-1.4c0 .8-.9 1.5-1.7 1.4zM309.4 52.2c.4-.9 1.1-1.3 1.9-1.7-.5 1.1-.7 1.3-1.9 1.7zM219.2 70.3l2.9-2.1c-.6 1-2 2-2.9 2.1zM237.2 52.9c.4-.9 1.4-1.1 2.1-1.6l.2.3-2.1 1.6-.2-.3zM21.4 50.6c.4-1.1.6-1.2 1.7-1l-1.7 1zM337.1 71c.6-.9 1.2-1.4 2-1.5-.4.6-.9 1.1-2 1.5zM21 63.8c.4-.6.9-1.1 1.9-1.2-.6.7-1.3.9-1.9 1.2zM319.6 44.5c.2-.7.7-.9 1.5-1.2-.4.8-.9 1-1.5 1.2zM357.9 20.6c.5-.7 1-1.3 2.1-1.3-.7.7-1.3 1.2-2.1 1.3zM308.4 57l1.4-1.3c.1.5-.3 1-1.3 1.5l-.1-.2zM123.7 70.7c.4-.5.9-.9 2-.6l-1.8.9-.2-.3zM295.4 40.9l-1.7 1.1c0-.9.7-1 1.1-1.4h.5l.1.3zM334.5 42l1.3-.8c0 .8-.1.9-1.3.8zM45.6 71.6c.5-.5 1.1-.8 1.7-1.1l.1.2-1.6 1.3-.2-.4zM174.5 46.4l1.5-1.1c-.1.9-.6 1.3-1.5 1.1zM277.4 62.1l1.9-1.2c-.2 1-1 1.5-1.9 1.2zM333.8 51c-.3 1.1-.7 1.4-1.9 1.4.7-.4 1.3-.8 1.9-1.4zM350.3 17.7l-1.5 1.2-.2-.2c.3-.6 1-.8 1.5-1.2l.2.2zM310.9 42.1c.5-.8 1-.9 1.7-1.1-.4.7-.8 1.1-1.7 1.1zM86.5 46.3 85 47.4l-.2-.2a3 3 0 0 1 1.6-1.1l.1.2zM281.9 37.4c.5-.9 1.4-1.3 2.2-1.7a6 6 0 0 1-2.2 1.7zM359.9 45.4c.3-.7.7-1 1.5-1.2-.4.7-.7 1.1-1.5 1.2zM173.9 51.9c0-1.3.2-1.4 1.3-1l-1.3 1zM23.8 48.8c.5-.5.6-1.5 1.8-1.3L24 49l-.2-.2zM247 50.6c-.5.2-.7.9-1.2.4-.1-.1 0-.4.1-.6.4-.5.7-.2 1.1.2zM282.8 27.7c.4-.4.7-.8 1.5-.5l-1.3.9-.2-.4zM189.6 62.3l-1.7.9c.3-1 .9-1.1 1.6-1.2l.1.3zM317.7 28c.6-.3 1-.9 1.9-.6l-1.7.9c-.2-.1-.2-.2-.2-.3zM356.8 47.7c.3-.9.9-1.2 1.6-1.6-.2.9-.8 1.2-1.6 1.6zM27.9 63.3c.4-1.1.6-1.2 1.6-1.2l-1.6 1.2zM302.5 61.5a4 4 0 0 1-2 1.5c.5-1 1.4-1.1 2-1.5zM261.2 35.3l-1.5 1.2c.2-.7.6-1.2 1.2-1.5l.3.3zM67.2 51.5c-.1.8-.9.8-1.4 1.1l-.2-.2 1.3-1.2.3.3zM292.8 46.5l1.6-1.2c-.4.9-.5 1-1.5 1.4l-.1-.2zM127.8 46.6l-1.4 1c.2-1 .3-1.1 1.4-1zM16.3 49.9c-.4.6-.6 1.1-1.3 1 0-.7.2-.9 1.3-1zM351 64.8a9 9 0 0 1 1.6-1.1l.2.2c-.3.7-1.1.7-1.6 1.2l-.2-.3zM227 51.9l-1.4 1-.2-.2c.3-.6.7-.9 1.4-1l.2.2zM144.8 59.4l1.5-1c-.2.7-.8 1-1.4 1.2l-.1-.2zM52.9 66.4c-.3.7-.8 1-1.7 1.1.5-.8 1.1-1 1.7-1.1zM59.7 56.8l1.4-1.1c-.2 1-.2 1-1.4 1.1zM160.5 47.7l1.5-.7c-.6 1.2-.8 1.3-1.5.7zM309.9 47.5l-1.3 1-.2-.2c.3-.5.9-.7 1.3-1.1l.2.3zM287.3 63.7c.5-.5.8-.9 1.4-.8-.3.8-.4.8-1.4.8zM116.9 62.4c.3 1 .1 1.2-1 1l1-1zM244 56.2l1.4-1 .2.3-1.4 1.1-.2-.4zM354.6 49.7c-.1-.6.4-1 1.3-1.2-.2.7-.8.8-1.3 1.2zM300.5 32.2l1.4-.9c-.2.7-.8.8-1.2 1.1l-.2-.2zM58.4 58.6v-.9l.9-.2.1.3-1 .8zM92.6 54.8c-.5.4-.8 1.2-1.7.9l1.5-1.1.2.2zM358.7 11.6c0-1.1.1-1.2 1-.8-.2.4-.4.8-1 .8zM180.1 42.4c.4-.5.9-.9 1.6-1l.1.2-1.6 1-.1-.2zM160.3 56.8l1.2-.8c-.2.9-.4 1.1-1.2.8zM357.3 21.1c-.4.6-.6 1-1.4 1 .2-.7.8-.7 1.4-1zM322.6 46.8c.2-.9.8-1 1.2-1.3 0 .7-.5.9-1.2 1.3zM158.5 71.4l.2.3M329.8 68.1c-.1-1.1 0-1.2.9-.8l-.9.8zM297.4 30.8l-1.6.8c.2-.5.6-.8 1.4-1l.2.2zM15.4 63.8c.1-1.1.1-1.1 1.1-.9-.3.4-.6.6-1.1.9zM165.2 49.2l-1.4.9c.4-.6.8-.8 1.4-.9zM152.3 58.7c-.2.8-.7.9-1.5 1 .4-.6.8-1 1.5-1zM356.2 30.5l1.5-1.1c-.1.8-.7 1.1-1.3 1.3a.2.2 0 0 1-.2-.2zM57.6 62.7l1.6-1.1c-.3.9-1.1.8-1.4 1.3a.2.2 0 0 1-.2-.2zM353.5 6.6c-.3.5-.6.9-1.2.7l-.2-.3 1.2-.6.2.2zM39.7 45.1l1.7-1.1c-.4.6-.5 1.4-1.7 1.1zM343.5 57.7l-.9.8c-.1-.7.3-.8.7-1l.2.2zM53.2 57.8l-1.2.9c.2-.9.3-1 1.2-.9zM327.8 38.3l1-.9c.2.9-.3 1.1-.7 1.2l-.3-.3zM259.4 49.6c.2-.6.6-.9 1.3-.7l-1.3.7zM154.3 65.9c-.4.6-.9 1.1-1.7 1.3l1.7-1.3zM295.7 27.6c0-1.1.1-1.1 1-.8l-1 .8zM305 55.7l-1.1.6c.2-.5.3-1.1.9-.9l.2.3zM360.4 36.7l-1.2.8c.1-.6.4-.9 1.2-.8zM262.7 64.8l-1.4.9c.3-.5.6-1 1.2-1.2l.2.3zM76.6 66.1c-.2 1-.6 1.2-1.4 1.1l1.4-1.1zM155.3 55.9l1.1-.6c-.1.4-.4.7-.9.9l-.2-.3zM306.3 23.9 305 25c.2-.9.8-1 1.1-1.3l.2.2zM124.2 65.9l1.6-1.1c-.2.6-.8 1-1.6 1.1zM174.3 68.4l1.1-.8.2.2-1.1.8a.2.2 0 0 1-.2-.2zM221.6 51.5c-.3.3-.7.6-1.2.7l-.2-.3 1.1-.8.3.4zM348.6 44.7l1.4-.9c-.2.6-.5.9-1.4.9zM68.5 45.6l1.1-.4c-.4 1-.5 1.1-1.1.4zM299.9 36.9c-.2.6-.7.9-1.4.9l1.4-.9zM200.1 53.9l1.5-1.3c-.4 1-.5 1-1.5 1.3zM271.5 71.4c0-.7.4-.9 1-.8-.1.5-.5.6-1 .8zM292.6 55.9l-.9.7c-.1-.5.2-.9.9-.7zM3.5 58.8l1.1-.6.2.3-1.2.6-.1-.3zM122.3 67.7c.2-.6.5-.9 1.2-.5l-1.2.5zM23 66.7c-.3.5-.6.8-1.3.9.4-.6.7-.9 1.3-.9zM307.3 19.3l-1.1.8c0-.7.4-.9 1.1-.8zM161.6 43.3l-.9.7-.2-.2 1-.7.1.2zM70.6 70.7c-.2.7-.6 1-1.2.7l1.2-.7zM44.5 46c0 .6-.3.8-.9.7l.9-.7zM350.8 38.5c-.1.5-.4.8-1 .9l1-.9zM354.8 18.9l-1.2.6-.1-.1 1.1-.8.2.3zM140.1 58.7l1-.7c0 .6-.5.7-.8 1l-.2-.3zM153.8 49.1l-.8.7c-.3-.8-.2-.9.8-.7zM67.3 56.4l-1 .5c-.2-.5.1-.7.4-.9l.6.4zM116.6 67.1l1-.6c0 .4-.3.7-.8.8l-.2-.2zM59.3 53.3l-.9.9c0-.6.3-.9.9-.9zM53.3 62l-.9.7c-.2-.9.3-.8.6-1l.3.3zM355.8 40l-1 .7-.2-.3.9-.8.3.4zM360.6 9.5l1.2-.7c-.2.6-.5 1-1.2.7zM90.6 56c-.4.4-.8.7-1.2.7.2-.4.5-.6 1.2-.7zM91.1 51.7l-1.1.9c.1-.5.4-.8 1-1.1l.1.2zM168.1 51.6l-.7.7-.2-.4c.1-.6.5-.6.9-.3zM183.9 61.4l1-.8c-.1.5-.3.8-1 .8zM18.5 60.9l1.1-1c-.1.8-.3 1.3-.9 1.2a.2.2 0 0 1-.2-.2zM285.3 70.1l-1.4.9c.1-.8.3-.9 1.4-.9zM327.6 21.7l-1 .7c.1-.6.4-.8 1-.7zM49.9 64.4l-1.3 1c.1-.8.7-1 1.1-1.3l.2.3zM354.8 62.3c0-.7.2-.8.9-.6-.1.5-.4.7-.9.6zM55.7 47.1l-1.2 1c.1-1 .7-.9 1.1-1.2l.1.2zM309.5 60.8l.5-1.3.5.9-1 .4zM177 70.7l.9-.6c-.1.6-.4.7-.9.6zM27.2 59.4l-1.2.7c.2-.5.6-.9 1.2-.7zM269.1 68.7c-.1.4-.5.5-1.2.4l1-.6.2.2zM314.6 52.8l-.9.6c.1-.6.5-.6.9-.6zM47.4 66.1c-.3.6-.5.9-1.1.9.1-.6.4-.7 1.1-.9zM239 60.9c-.3-.9.1-1.1.8-1.5l-.8 1.5zM304.9 50.8l1-.7.2.2-.9.8-.3-.3zM62.1 59.2c.2 1-.4.8-.9.7l.9-.7zM195.1 57.5c0 .6-.4.7-.8.9 0-.4.3-.7.8-.9zM282.2 50.1l1-.9.2.2-1 .9-.2-.2zM287.8 45.8l1-.6.2.2-.9.7c-.2 0-.3-.1-.3-.3zM63.8 54.7l-.7.3c-.2-.6-.2-.7.6-.6l.1.3zM336.9 53.4l1.1-.8.2.2-1.1.9-.2-.3zM265 41c.1-.4.4-.6 1-.3l-.8.6-.2-.3zM172.4 48.1c0 .6-.2.8-.9.6l.9-.6zM275 60c.2-.7.5-.9 1.1-.6l-1.1.6zM343.3 26.8l.9-.6.2.3-.9.7-.2-.4zM303.3 21.5l.3-.3.8-.6c-.2.7-.5.9-1.1.9zM40.7 70.4l.9.4c-.4.3-.7.2-.9-.4zM254.1 49.2c.2-.4.5-.7.9-.8-.1.6-.4.7-.9.8zM313.9 44.6l-.8.5-.2-.2.8-.5.2.2zM277.4 62.1c-.1.6-.5.9-1.2 1.1l1.2-1.1zM253.4 54.1c-.1.4-.3.6-1.1.5l.9-.7.2.2zM255.7 47.9c.1-.5.5-.5 1-.4l-.8.6-.2-.2zM231.4 43.6l.8-.6c.2.8-.2.8-.5.9l-.3-.3zM253.4 41.1l-1.1.6-.1-.1 1-.7.2.2zM312.8 36.2l.8-.6.2.2-.8.7-.2-.3zM343.8 39.7l1-.5.1.2-.9.5-.2-.2zM322.8 55.6c.1-.7.4-.9 1.1-.9l-1.1.9zM165.4 53.5l-.9.9c0-.8.4-.9.9-.9zM323.6 32.4l.9-.3c-.2.6-.4.8-.9.3zM176.6 66.7l.8-.8.2.2-.8.8-.2-.2zM217.2 71.8l.7-.6.2.2-.6.7-.3-.3zM206.9 71.1c0-.6.2-.8.8-.6l-.8.6zM360.7 49.8l-1.2-.2c.5-.3.8-.4 1.2.2zM181.5 63.2l.6-.6.2.1-.5.7-.3-.2zM36.3 52.4l.5-.5.3.2-.4.6-.4-.3zM326.1 57l.8-.5.1.2-.8.6-.1-.3zM106.2 66.4l.8-.4.1.2-.7.6-.2-.4zM220.7 47.4l.6-.3.2.2-.5.4-.3-.3zM57.1 41.5c-.2.5-.4.7-1 .6.2-.5.5-.7 1-.6zM42.3 57.1l-.9.7c0-.6.4-.7.7-.9l.2.2zM52.4 41l-.6.1.1-.5.6.2-.1.2zM332 13.3l.6-.6c.1.1.2.2.1.3 0 .4-.2.6-.7.3zM163.3 41.8l.7-.3.1.3-.7.3-.1-.3zM342 71.3l.7-.3.1.2a2 2 0 0 0-.6.4l-.2-.3zM280 64.7l.8-.6.2.3-.8.6-.2-.3zM242.6 61.8l.7-.4.1.2-.6.5-.2-.3zM265.8 66.2l1-.4c-.1.9-.6.5-1 .4zM76.2 70.7c.1.7-.1 1-.8.7l.8-.7zM53 66.4l.9-.8.2.2-1.1.6zM196.6 56.5l-.3.4-.2-.2.4-.4.1.2zM55.6 64.4l.7-.6.1.2-.7.6-.1-.2zM62.9 50.6l-.4.2-.2-.2.3-.3.3.3zM361.5 26.6l.5-.4.2.2-.5.5-.2-.3zM348.1 27.7l1-.6c-.2.4-.5.6-1 .6zM72.7 47.7l-.7.5-.2-.2.7-.6.2.3zM192.8 63.5l.5-.4.1.1-.2.4-.4.1v-.2zM153.7 71l-.8.4-.1-.2.7-.5.2.3zM28.4 53.9l.5-.5.2.2-.5.5-.2-.2zM115.1 50.8l.6-.5.2.3-.6.5-.2-.3zM117.6 71.3c-.1.1-.2.3-.4.3l-.3-.2.3-.3.4.2zM11.7 58l-.1-.5.3-.3.1.1-.3.7zM254 66.6l.4-.5.2.1-.3.5-.3-.1zM323.4 72l.5-.3.1.2M11.1 66.3l.6-.4.2.3-.5.4-.3-.3zM5.1 70.9l.7-.4.1.2-.6.5-.2-.3zM353.6 54l-.1 1c-.2-.4-.2-.7.1-1zM325.7 53.3l-.4.3-.2-.2.5-.2.1.1zM192.4 42.7l-.6.2-.1-.2.6-.3.1.3zM317.5 54.4l.6-.4.3.3-.5.5-.4-.4zM360.2 62.6l.5-.5.1.1-.5.5-.1-.1zM319.1 57.7l.4-.4.2.2-.4.5c0-.2-.1-.3-.2-.3zM348.7 66.9l-.3.4-.2-.1.3-.4.2.1zM336.9 49.5l-.4.5-.2-.1.4-.5.2.1zM311.9 45.8l-.3.4-.2-.1.4-.4.1.1zM316.4 64.6l-.3-.3.3-.3.2.2-.2.4zM292 61l-.4.2-.2-.3.3-.2.3.3zM288.9 41.4l-.6.2c0-.1-.1-.2 0-.2l.5-.3.1.3zM359.5 6.1l.7-.3.1.2-.6.4-.2-.3zM178.8 47.6l-.4.5-.1-.1.4-.4c0-.1.1 0 .1 0zM168.2 47.2l-.4.2-.1-.2.2-.2.3.2zM203.8 55.9l-.4.5-.2-.1.4-.5.2.1zM273.2 35l.6-.5.1.2-.6.5-.1-.2zM202.1 57.1l-.7.4-.1-.2.6-.5.2.3zM275.6 33.2l.6-.2.1.2-.6.2-.1-.2zM351.3 43.1l-.7.4-.1-.2.7-.4.1.2zM178 56.9l.5-.4.3.4-.5.4-.3-.4zM61.3 42.9l-.4.2.2-.3.2.1zM174.5 60.2l-.6.3-.2-.2.5-.5.3.4zM9.2 51l-.7.4-.1-.2.4-.3.4-.1v.2zM152.4 72l-.5.1-.1-.1.3-.2.3.1v.1zM326 30.8l.6-.4.2.2-.6.5-.2-.3zM50.1 42.3l-.6.4-.2-.2.6-.4.2.2zM138 64.5l.6-.4.1.2-.5.5c0-.2-.1-.2-.2-.3zM317.9 23.8l.5-.3.1.1-.5.4-.1-.2zM158.7 62.3l-.4 1-.3-.2.7-.8z"/></svg>